<svg xmlns:xlink="http://www.w3.org/1999/xlink"  width="190" height="48" viewBox="0 0 190 48" fill="none" xmlns="http://www.w3.org/2000/svg" >
<g clip-path="url(#clip0_3193_10613)">
<path d="M12.2685 4.38574C12.2685 4.38574 13.5902 9.56308 20.0558 12.0695C21.3319 12.5629 22.6049 13.0654 23.8505 13.6258L44.6025 22.9358C44.6025 22.9358 59.0168 29.4532 51.4944 43.365C51.4944 43.365 50.8335 38.7389 42.696 35.5777C41.1732 34.9869 39.6566 34.3808 38.1643 33.7108L20.537 25.8169C20.537 25.8169 4.12178 19.4274 12.2685 4.38574Z" fill="#009BFF"/>
<path d="M53.6689 0L39.2119 8.39642L53.6689 16.668V0Z" fill="#009BFF"/>
<path d="M10 31.332L24.4539 39.7285L10 48V31.332Z" fill="#009BFF"/>
</g>
<path d="M77.634 30.18C76.614 30.18 75.618 29.994 74.646 29.622C73.674 29.238 72.81 28.698 72.054 28.002L73.548 26.13C74.28 26.778 74.982 27.246 75.654 27.534C76.338 27.822 77.058 27.966 77.814 27.966C78.342 27.966 78.798 27.906 79.182 27.786C79.566 27.654 79.86 27.468 80.064 27.228C80.28 26.988 80.388 26.706 80.388 26.382C80.388 25.95 80.232 25.62 79.92 25.392C79.608 25.152 79.074 24.966 78.318 24.834L75.816 24.402C74.748 24.222 73.932 23.844 73.368 23.268C72.816 22.692 72.54 21.948 72.54 21.036C72.54 20.256 72.738 19.578 73.134 19.002C73.542 18.426 74.112 17.988 74.844 17.688C75.588 17.376 76.47 17.22 77.49 17.22C78.414 17.22 79.332 17.376 80.244 17.688C81.168 18 81.984 18.432 82.692 18.984L81.288 20.928C79.968 19.92 78.642 19.416 77.31 19.416C76.842 19.416 76.434 19.476 76.086 19.596C75.738 19.716 75.468 19.884 75.276 20.1C75.096 20.304 75.006 20.55 75.006 20.838C75.006 21.222 75.144 21.522 75.42 21.738C75.696 21.942 76.158 22.098 76.806 22.206L79.182 22.602C80.442 22.806 81.384 23.208 82.008 23.808C82.632 24.396 82.944 25.176 82.944 26.148C82.944 26.964 82.728 27.678 82.296 28.29C81.864 28.89 81.246 29.358 80.442 29.694C79.65 30.018 78.714 30.18 77.634 30.18ZM84.3275 33.672V20.622H86.7575V21.396C87.5255 20.796 88.4135 20.496 89.4215 20.496C90.3095 20.496 91.1135 20.712 91.8335 21.144C92.5535 21.576 93.1235 22.158 93.5435 22.89C93.9755 23.61 94.1915 24.42 94.1915 25.32C94.1915 26.22 93.9755 27.036 93.5435 27.768C93.1115 28.488 92.5295 29.064 91.7975 29.496C91.0655 29.916 90.2495 30.126 89.3495 30.126C88.8815 30.126 88.4315 30.066 87.9995 29.946C87.5675 29.814 87.1655 29.628 86.7935 29.388V33.672H84.3275ZM89.0255 28.038C89.5415 28.038 90.0035 27.918 90.4115 27.678C90.8315 27.438 91.1615 27.114 91.4015 26.706C91.6415 26.298 91.7615 25.836 91.7615 25.32C91.7615 24.804 91.6415 24.342 91.4015 23.934C91.1615 23.514 90.8315 23.19 90.4115 22.962C90.0035 22.722 89.5415 22.602 89.0255 22.602C88.5695 22.602 88.1495 22.68 87.7655 22.836C87.3935 22.98 87.0695 23.202 86.7935 23.502V27.156C87.0575 27.432 87.3815 27.648 87.7655 27.804C88.1615 27.96 88.5815 28.038 89.0255 28.038ZM95.6829 30V20.622H98.1489V30H95.6829ZM96.9069 19.506C96.5229 19.506 96.1929 19.368 95.9169 19.092C95.6409 18.816 95.5029 18.486 95.5029 18.102C95.5029 17.706 95.6409 17.376 95.9169 17.112C96.1929 16.836 96.5229 16.698 96.9069 16.698C97.3029 16.698 97.6329 16.836 97.8969 17.112C98.1729 17.376 98.3109 17.706 98.3109 18.102C98.3109 18.486 98.1729 18.816 97.8969 19.092C97.6329 19.368 97.3029 19.506 96.9069 19.506ZM100.077 30V20.622H102.543V21.396C103.251 20.76 104.127 20.442 105.171 20.442C105.903 20.442 106.545 20.604 107.097 20.928C107.661 21.24 108.099 21.678 108.411 22.242C108.723 22.794 108.879 23.442 108.879 24.186V30H106.413V24.546C106.413 23.934 106.239 23.454 105.891 23.106C105.543 22.746 105.069 22.566 104.469 22.566C104.049 22.566 103.677 22.65 103.353 22.818C103.029 22.974 102.759 23.202 102.543 23.502V30H100.077ZM113.735 30.162C113.063 30.162 112.469 30.042 111.953 29.802C111.437 29.55 111.035 29.208 110.747 28.776C110.459 28.344 110.315 27.846 110.315 27.282C110.315 26.382 110.651 25.686 111.323 25.194C112.007 24.69 112.943 24.438 114.131 24.438C114.947 24.438 115.715 24.564 116.435 24.816V24.132C116.435 23.592 116.267 23.184 115.931 22.908C115.595 22.632 115.103 22.494 114.455 22.494C114.059 22.494 113.633 22.56 113.177 22.692C112.721 22.812 112.193 23.004 111.593 23.268L110.693 21.45C111.437 21.114 112.145 20.862 112.817 20.694C113.501 20.526 114.185 20.442 114.869 20.442C116.129 20.442 117.107 20.748 117.803 21.36C118.511 21.96 118.865 22.812 118.865 23.916V30H116.435V29.334C116.051 29.622 115.637 29.832 115.193 29.964C114.749 30.096 114.263 30.162 113.735 30.162ZM112.655 27.228C112.655 27.588 112.811 27.876 113.123 28.092C113.435 28.296 113.849 28.398 114.365 28.398C114.773 28.398 115.151 28.35 115.499 28.254C115.847 28.146 116.159 27.99 116.435 27.786V26.418C116.135 26.298 115.823 26.208 115.499 26.148C115.175 26.088 114.827 26.058 114.455 26.058C113.891 26.058 113.447 26.166 113.123 26.382C112.811 26.586 112.655 26.868 112.655 27.228ZM125.07 30.126C124.182 30.126 123.378 29.91 122.658 29.478C121.938 29.046 121.362 28.47 120.93 27.75C120.51 27.018 120.3 26.202 120.3 25.302C120.3 24.402 120.51 23.592 120.93 22.872C121.362 22.14 121.944 21.564 122.676 21.144C123.408 20.712 124.23 20.496 125.142 20.496C125.61 20.496 126.06 20.562 126.492 20.694C126.924 20.814 127.326 20.994 127.698 21.234V17.4L130.164 16.986V30H127.734V29.226C126.966 29.826 126.078 30.126 125.07 30.126ZM125.466 28.02C125.922 28.02 126.336 27.948 126.708 27.804C127.092 27.648 127.422 27.42 127.698 27.12V23.466C127.422 23.19 127.092 22.974 126.708 22.818C126.324 22.662 125.91 22.584 125.466 22.584C124.95 22.584 124.482 22.704 124.062 22.944C123.654 23.172 123.33 23.496 123.09 23.916C122.85 24.324 122.73 24.786 122.73 25.302C122.73 25.818 122.85 26.28 123.09 26.688C123.33 27.096 123.654 27.42 124.062 27.66C124.482 27.9 124.95 28.02 125.466 28.02ZM135.075 30.162C134.403 30.162 133.809 30.042 133.293 29.802C132.777 29.55 132.375 29.208 132.087 28.776C131.799 28.344 131.655 27.846 131.655 27.282C131.655 26.382 131.991 25.686 132.663 25.194C133.347 24.69 134.283 24.438 135.471 24.438C136.287 24.438 137.055 24.564 137.775 24.816V24.132C137.775 23.592 137.607 23.184 137.271 22.908C136.935 22.632 136.443 22.494 135.795 22.494C135.399 22.494 134.973 22.56 134.517 22.692C134.061 22.812 133.533 23.004 132.933 23.268L132.033 21.45C132.777 21.114 133.485 20.862 134.157 20.694C134.841 20.526 135.525 20.442 136.209 20.442C137.469 20.442 138.447 20.748 139.143 21.36C139.851 21.96 140.205 22.812 140.205 23.916V30H137.775V29.334C137.391 29.622 136.977 29.832 136.533 29.964C136.089 30.096 135.603 30.162 135.075 30.162ZM133.995 27.228C133.995 27.588 134.151 27.876 134.463 28.092C134.775 28.296 135.189 28.398 135.705 28.398C136.113 28.398 136.491 28.35 136.839 28.254C137.187 28.146 137.499 27.99 137.775 27.786V26.418C137.475 26.298 137.163 26.208 136.839 26.148C136.515 26.088 136.167 26.058 135.795 26.058C135.231 26.058 134.787 26.166 134.463 26.382C134.151 26.586 133.995 26.868 133.995 27.228ZM143.35 30.18C142.954 30.18 142.612 30.036 142.324 29.748C142.036 29.46 141.892 29.118 141.892 28.722C141.892 28.314 142.036 27.966 142.324 27.678C142.612 27.39 142.954 27.246 143.35 27.246C143.746 27.246 144.088 27.39 144.376 27.678C144.664 27.966 144.808 28.314 144.808 28.722C144.808 29.118 144.664 29.46 144.376 29.748C144.088 30.036 143.746 30.18 143.35 30.18ZM150.702 30.18C149.778 30.18 148.944 29.97 148.2 29.55C147.456 29.118 146.868 28.536 146.436 27.804C146.004 27.06 145.788 26.232 145.788 25.32C145.788 24.396 146.004 23.568 146.436 22.836C146.868 22.104 147.456 21.522 148.2 21.09C148.944 20.658 149.778 20.442 150.702 20.442C151.446 20.442 152.154 20.586 152.826 20.874C153.51 21.162 154.098 21.576 154.59 22.116L153.078 23.718C152.73 23.334 152.364 23.052 151.98 22.872C151.608 22.68 151.2 22.584 150.756 22.584C150.276 22.584 149.844 22.704 149.46 22.944C149.088 23.184 148.788 23.508 148.56 23.916C148.344 24.324 148.236 24.792 148.236 25.32C148.236 25.824 148.344 26.286 148.56 26.706C148.788 27.114 149.1 27.438 149.496 27.678C149.892 27.906 150.33 28.02 150.81 28.02C151.23 28.02 151.62 27.936 151.98 27.768C152.352 27.588 152.706 27.324 153.042 26.976L154.518 28.524C154.038 29.04 153.462 29.448 152.79 29.748C152.118 30.036 151.422 30.18 150.702 30.18ZM160.108 30.18C159.172 30.18 158.326 29.964 157.57 29.532C156.814 29.1 156.214 28.518 155.77 27.786C155.326 27.054 155.104 26.232 155.104 25.32C155.104 24.408 155.32 23.586 155.752 22.854C156.196 22.11 156.796 21.522 157.552 21.09C158.32 20.658 159.172 20.442 160.108 20.442C161.044 20.442 161.89 20.658 162.646 21.09C163.414 21.522 164.014 22.11 164.446 22.854C164.89 23.586 165.112 24.408 165.112 25.32C165.112 26.232 164.89 27.054 164.446 27.786C164.014 28.518 163.42 29.1 162.664 29.532C161.908 29.964 161.056 30.18 160.108 30.18ZM160.108 28.038C160.6 28.038 161.038 27.918 161.422 27.678C161.818 27.438 162.13 27.114 162.358 26.706C162.598 26.286 162.718 25.824 162.718 25.32C162.718 24.804 162.598 24.342 162.358 23.934C162.13 23.526 161.818 23.202 161.422 22.962C161.038 22.71 160.6 22.584 160.108 22.584C159.628 22.584 159.19 22.71 158.794 22.962C158.398 23.202 158.086 23.526 157.858 23.934C157.63 24.342 157.516 24.804 157.516 25.32C157.516 25.824 157.63 26.286 157.858 26.706C158.086 27.114 158.398 27.438 158.794 27.678C159.19 27.918 159.628 28.038 160.108 28.038ZM166.628 30V20.622H169.094V21.342C169.766 20.742 170.582 20.442 171.542 20.442C172.154 20.442 172.7 20.568 173.18 20.82C173.66 21.06 174.056 21.402 174.368 21.846C174.752 21.39 175.202 21.042 175.718 20.802C176.246 20.562 176.828 20.442 177.464 20.442C178.172 20.442 178.79 20.604 179.318 20.928C179.858 21.24 180.278 21.678 180.578 22.242C180.89 22.794 181.046 23.442 181.046 24.186V30H178.598V24.546C178.598 23.934 178.436 23.454 178.112 23.106C177.788 22.746 177.356 22.566 176.816 22.566C176.444 22.566 176.102 22.644 175.79 22.8C175.49 22.956 175.232 23.19 175.016 23.502C175.028 23.61 175.04 23.718 175.052 23.826C175.064 23.934 175.07 24.054 175.07 24.186V30H172.604V24.546C172.604 23.934 172.442 23.454 172.118 23.106C171.806 22.746 171.38 22.566 170.84 22.566C170.468 22.566 170.132 22.638 169.832 22.782C169.544 22.926 169.298 23.142 169.094 23.43V30H166.628Z" fill="#F9F9F9"/>
<defs>
<clipPath id="clip0_3193_10613">
<rect width="48" height="48" fill="white" transform="translate(8)"/>
</clipPath>
</defs>
</svg>
