<?xml version="1.0" encoding="utf-8"?>
<!-- Generator: Adobe Illustrator 24.2.3, SVG Export Plug-In . SVG Version: 6.00 Build 0)  -->
<svg version="1.1" id="Layer_1" xmlns="http://www.w3.org/2000/svg" xmlns:xlink="http://www.w3.org/1999/xlink" x="0px" y="0px"
	 viewBox="0 0 796.5 236.2" style="enable-background:new 0 0 796.5 236.2;" xml:space="preserve">
<style type="text/css">
	.st0{fill:#FF7517;}
	.st1{fill:#E2445B;}
	.st2{fill:url(#SVGID_1_);}
</style>
<g id="Layer_1_copy">
	<g>
		<g>
			<g>
				<path class="st0" d="M117.9,120.3c-5.3-4.3-11.7-5.6-18.4-7c-4.3-0.9-9.2-1.9-14.5-3.8c-6.2-2.2-6.9-5.5-7-6.4
					c0-0.1,0-0.2,0-0.4v-0.2c0-4.7,8.8-7.8,14.6-7.8c5.8,0,14.6,3.1,14.6,7.8c0,5,4.1,9.1,9.1,9.1s9.1-4.1,9.1-9.1
					c0-14.5-14.4-25.9-32.7-25.9c-8.8,0-17,2.6-23.1,7.4c-6.2,4.9-9.6,11.4-9.6,18.5c0,1.7,0.2,6,2.7,10.8c3.1,6,8.6,10.4,16.2,13.2
					c6.6,2.4,12.4,3.6,17.1,4.5c4.9,1,8.8,1.8,10.8,3.4c2.1,1.7,3.2,3.7,3.2,5.7c0,5.3-7.9,10-16.7,10s-16.7-4.8-16.7-10
					c0-5-4.1-9.1-9.1-9.1s-9.1,4.1-9.1,9.1c0,15.8,15.3,28.2,34.8,28.2S128,156,128,140.2C128,132.6,124.3,125.4,117.9,120.3z"/>
				<path class="st0" d="M184.3,76.7c-24.9,0-45.2,20.3-45.2,45.2v70.8c0,5,4.1,9.1,9.1,9.1s9.1-4.1,9.1-9.1v-34.6
					c7.8,5.8,17.3,9,27.1,9c24.9,0,45.2-20.3,45.2-45.2S209.2,76.7,184.3,76.7z M184.3,149.1c-8.1,0-15.8-3.6-20.9-9.9
					c-4-4.8-6.2-10.9-6.2-17.2c0-15,12.2-27.1,27.1-27.1c15,0,27.1,12.2,27.1,27.1C211.4,136.9,199.2,149.1,184.3,149.1z"/>
				<path class="st0" d="M252.6,77.5c-5,0-9.1,4.1-9.1,9.1v70.8c0,5,4.1,9.1,9.1,9.1s9.1-4.1,9.1-9.1V86.5
					C261.6,81.5,257.6,77.5,252.6,77.5z"/>
				<circle class="st0" cx="252.6" cy="48.3" r="11.5"/>
				<path class="st0" d="M317.5,76.7c-21.5,0-39,17.5-39,39v41.7c0,5,4.1,9.1,9.1,9.1s9.1-4.1,9.1-9.1v-41.7
					c0-11.5,9.3-20.8,20.8-20.8s20.8,9.3,20.8,20.8v41.7c0,5,4.1,9.1,9.1,9.1s9.1-4.1,9.1-9.1v-41.7C356.5,94.2,339,76.7,317.5,76.7
					z"/>
			</g>
			<g>
				<path class="st1" d="M634.2,77.5c-5,0-9.1,4.1-9.1,9.1v70.8c0,5,4.1,9.1,9.1,9.1s9.1-4.1,9.1-9.1V86.5
					C643.3,81.5,639.2,77.5,634.2,77.5z"/>
				<path class="st1" d="M634.2,36.9c-6.3,0-11.5,5.1-11.5,11.5s5.1,11.5,11.5,11.5s11.5-5.1,11.5-11.5S640.6,36.9,634.2,36.9z"/>
				<path class="st1" d="M699.2,76.7c-21.5,0-39,17.5-39,39v41.7c0,5,4.1,9.1,9.1,9.1s9.1-4.1,9.1-9.1v-41.7
					c0-11.5,9.3-20.8,20.8-20.8s20.8,9.3,20.8,20.8v41.7c0,5,4.1,9.1,9.1,9.1s9.1-4.1,9.1-9.1v-41.7
					C738.1,94.2,720.7,76.7,699.2,76.7z"/>
				<path class="st1" d="M607,78c-2.3-0.8-4.7-0.7-6.9,0.3s-3.9,2.8-4.7,5.1L577.6,132l-19.7-48.9c-1.4-3.4-4.7-5.7-8.5-5.7
					c-3.7,0-7,2.3-8.4,5.8L522.3,132l-18.5-48.7c-0.9-2.3-2.6-4.1-4.8-5c-2.2-1-4.7-1.1-6.9-0.2c-2.3,0.9-4.1,2.6-5,4.8
					c-1,2.2-1.1,4.7-0.2,6.9l26.9,70.8c1.3,3.5,4.7,5.8,8.5,5.8c3.7,0,7.1-2.3,8.5-5.8l19-49.3l19.9,49.5c1.4,3.4,4.7,5.7,8.4,5.7
					h0.2c3.7-0.1,7.1-2.5,8.4-6l25.8-70.8c0.8-2.3,0.7-4.7-0.3-6.9C611.1,80.5,609.2,78.9,607,78z"/>
			</g>
			
				<linearGradient id="SVGID_1_" gradientUnits="userSpaceOnUse" x1="381.2" y1="136.4" x2="477.4739" y2="136.4" gradientTransform="matrix(1 0 0 -1 0 238)">
				<stop  offset="0" style="stop-color:#FF7517"/>
				<stop  offset="1" style="stop-color:#E2445B"/>
			</linearGradient>
			<path class="st2" d="M475.6,154.7c-0.1-0.1-2.7-3.5-7.7-9.7c3-5.6,4.6-12,4.6-18.7c0-5.8-1.2-11.5-3.7-16.8
				c-2-4.4-7.2-6.3-11.6-4.3s-6.3,7.2-4.3,11.6c1.4,3,2.1,6.2,2.1,9.5c0,0.8,0,1.5-0.1,2.2c-5.9-7.5-13-16.5-21.2-26.8
				c-6-7.6-10.7-13.2-14.5-17.7c-10.7-12.9-10.7-13.1-10.7-19.3c0-6.9,7.8-12.8,17.1-12.8s17.1,5.8,17.1,12.8c0,4.8,3.9,8.8,8.8,8.8
				c4.8,0,8.8-3.9,8.8-8.8c0-16.7-15.5-30.3-34.6-30.3C406.5,34.4,391,48,391,64.7c0,11.1,2.8,16,10.9,25.8
				c-12.7,7.7-20.7,20.9-20.7,35.7c0,23.5,20.5,42.6,45.7,42.6c11.3,0,21.6-3.8,29.6-10.2c3.5,4.4,5.3,6.8,5.4,6.8
				c1.7,2.2,4.3,3.3,6.9,3.3c1.9,0,3.8-0.6,5.4-1.9C477.9,164,478.6,158.5,475.6,154.7z M426.8,151.3c-15.5,0-28.2-11.3-28.2-25.1
				c0-9.3,5.7-17.6,14.6-22c2,2.5,4.3,5.2,6.7,8.3c10.3,13,18.9,23.9,25.6,32.3C440.6,148.9,434,151.3,426.8,151.3z"/>
		</g>
	</g>
</g>
</svg>
